<svg width="170" height="30" viewBox="0 0 170 30" fill="none" xmlns="http://www.w3.org/2000/svg">
<path d="M0.718875 25C0.462875 25 0.281542 24.9573 0.174875 24.872C0.0682083 24.7653 0.0255417 24.584 0.046875 24.328L0.206875 23.048C0.249542 22.8133 0.302875 22.6107 0.366875 22.44C0.452208 22.2693 0.612208 22.0453 0.846875 21.768L14.0309 5.704C14.1589 5.55467 14.2229 5.46933 14.2229 5.448C14.2442 5.40533 14.1695 5.384 13.9989 5.384H4.20688C3.78021 5.384 3.59888 5.128 3.66288 4.616L4.07888 1.64C4.12154 1.46933 4.16421 1.36267 4.20688 1.32C4.27088 1.27733 4.36688 1.256 4.49488 1.256H22.3189C22.6175 1.256 22.7455 1.448 22.7029 1.832L22.4789 3.24C22.4575 3.432 22.4149 3.592 22.3509 3.72C22.3082 3.848 22.2015 4.02933 22.0309 4.264L8.46288 20.584C8.29221 20.7547 8.31354 20.84 8.52688 20.84H19.4069C19.5989 20.84 19.7269 20.872 19.7909 20.936C19.8549 20.9787 19.8655 21.096 19.8229 21.288L19.3429 24.584C19.3215 24.7333 19.2789 24.84 19.2149 24.904C19.1509 24.968 19.0122 25 18.7989 25H0.718875ZM29.3736 25.32C27.8376 25.32 26.4936 25.0107 25.3416 24.392C24.1896 23.752 23.283 22.8773 22.6216 21.768C21.9816 20.6587 21.6616 19.368 21.6616 17.896C21.6616 16.5733 21.8963 15.3147 22.3656 14.12C22.8563 12.904 23.5283 11.816 24.3816 10.856C25.2563 9.87467 26.2803 9.10667 27.4536 8.552C28.6483 7.99733 29.9603 7.72 31.3896 7.72C32.8616 7.72 34.1416 8.01867 35.2296 8.616C36.339 9.192 37.1923 10.0347 37.7896 11.144C38.4083 12.2533 38.7176 13.5973 38.7176 15.176C38.7176 15.4533 38.707 15.7413 38.6856 16.04C38.6643 16.3387 38.6323 16.648 38.5896 16.968C38.5683 17.1387 38.5043 17.2667 38.3976 17.352C38.291 17.416 38.1096 17.448 37.8536 17.448H27.0696C26.8563 17.448 26.7176 17.5867 26.6536 17.864C26.5896 18.1413 26.5576 18.4613 26.5576 18.824C26.5576 19.848 26.8883 20.6267 27.5496 21.16C28.211 21.6933 29.0536 21.96 30.0776 21.96C30.8883 21.96 31.6456 21.8 32.3496 21.48C33.0536 21.1387 33.747 20.5947 34.4296 19.848C34.5363 19.7413 34.643 19.6987 34.7496 19.72C34.8776 19.72 35.0163 19.752 35.1656 19.816L37.2776 20.808C37.7043 21 37.779 21.2773 37.5016 21.64C36.6483 22.5787 35.8056 23.3253 34.9736 23.88C34.163 24.4133 33.299 24.7867 32.3816 25C31.4856 25.2133 30.483 25.32 29.3736 25.32ZM33.4376 14.888C33.651 14.888 33.8323 14.8027 33.9816 14.632C34.131 14.44 34.2056 14.1093 34.2056 13.64C34.2056 12.872 33.971 12.2 33.5016 11.624C33.0536 11.0267 32.3603 10.728 31.4216 10.728C30.7176 10.728 30.0563 10.9093 29.4376 11.272C28.819 11.6347 28.307 12.136 27.9016 12.776C27.4963 13.3947 27.251 14.0987 27.1656 14.888H33.4376ZM40.6676 25C40.4543 25 40.3156 24.9253 40.2516 24.776C40.209 24.6053 40.1983 24.4133 40.2196 24.2L42.4276 8.488C42.449 8.296 42.4916 8.17867 42.5556 8.136C42.6196 8.072 42.7263 8.04 42.8756 8.04H46.9716C47.0996 8.04 47.185 8.072 47.2276 8.136C47.2916 8.17867 47.3023 8.28533 47.2596 8.456L47.0356 10.056C47.0143 10.312 47.121 10.3333 47.3556 10.12C48.2303 9.39467 49.137 8.81867 50.0756 8.392C51.0143 7.944 51.9743 7.72 52.9556 7.72C54.4063 7.72 55.537 8.11467 56.3476 8.904C57.1583 9.69333 57.5636 10.728 57.5636 12.008C57.5636 12.1573 57.553 12.3067 57.5316 12.456C57.5316 12.6053 57.521 12.7547 57.4996 12.904L55.8996 24.36C55.857 24.616 55.7823 24.7867 55.6756 24.872C55.569 24.9573 55.377 25 55.0996 25H51.4196C51.185 25 51.0463 24.9253 51.0036 24.776C50.961 24.6267 50.9503 24.4347 50.9716 24.2L52.4756 13.512C52.497 13.384 52.5076 13.2667 52.5076 13.16C52.529 13.0533 52.5396 12.968 52.5396 12.904C52.5396 12.3707 52.3796 11.9653 52.0596 11.688C51.761 11.4107 51.2916 11.272 50.6516 11.272C50.1823 11.272 49.7236 11.3573 49.2756 11.528C48.849 11.6987 48.4223 11.944 47.9956 12.264C47.5903 12.5627 47.1636 12.936 46.7156 13.384L45.1156 24.392C45.073 24.6693 44.9876 24.84 44.8596 24.904C44.753 24.968 44.5503 25 44.2516 25H40.6676ZM60.4981 12.936C60.8608 10.4187 61.6075 8.27467 62.7381 6.504C63.8688 4.712 65.3088 3.336 67.0581 2.376C68.8075 1.416 70.7701 0.935999 72.9461 0.935999C74.9515 0.935999 76.6688 1.34133 78.0981 2.152C79.5275 2.94133 80.6261 4.08267 81.3941 5.576C82.1621 7.048 82.5461 8.81867 82.5461 10.888C82.5461 11.2933 82.5248 11.7093 82.4821 12.136C82.4608 12.5627 82.4181 13 82.3541 13.448C82.0555 15.5813 81.4795 17.4373 80.6261 19.016C79.7941 20.5947 78.6848 21.9173 77.2981 22.984C77.0635 23.1547 76.9781 23.3147 77.0421 23.464C77.1275 23.6773 77.3195 23.9013 77.6181 24.136C77.9381 24.3493 78.3115 24.552 78.7381 24.744C79.1861 24.9147 79.6555 25.032 80.1461 25.096C80.3168 25.1173 80.4341 25.16 80.4981 25.224C80.5835 25.3093 80.6048 25.416 80.5621 25.544L80.1461 28.424C80.1248 28.68 80.0501 28.84 79.9221 28.904C79.7941 28.9893 79.5168 29.032 79.0901 29.032C78.3221 29.032 77.5541 28.904 76.7861 28.648C76.0395 28.392 75.3248 27.976 74.6421 27.4C73.9808 26.824 73.3941 26.088 72.8821 25.192C72.7541 25 72.5515 24.9467 72.2741 25.032C71.8688 25.1387 71.4635 25.2133 71.0581 25.256C70.6741 25.2987 70.3008 25.32 69.9381 25.32C67.9328 25.32 66.2048 24.936 64.7541 24.168C63.3248 23.3787 62.2261 22.248 61.4581 20.776C60.7115 19.304 60.3381 17.544 60.3381 15.496C60.3381 15.0907 60.3488 14.6747 60.3701 14.248C60.3915 13.8 60.4341 13.3627 60.4981 12.936ZM66.2901 13.512C66.2048 14.1093 66.1408 14.664 66.0981 15.176C66.0555 15.688 66.0341 16.1573 66.0341 16.584C66.0341 18.2693 66.3648 19.496 67.0261 20.264C67.7088 21.0107 68.7328 21.384 70.0981 21.384C71.8901 21.384 73.3088 20.7227 74.3541 19.4C75.4208 18.056 76.1568 15.912 76.5621 12.968C76.6475 12.3707 76.7115 11.816 76.7541 11.304C76.7968 10.7707 76.8181 10.28 76.8181 9.832C76.8181 8.12533 76.4875 6.86667 75.8261 6.056C75.1861 5.24533 74.1835 4.84 72.8181 4.84C71.0261 4.84 69.5968 5.544 68.5301 6.952C67.4635 8.33867 66.7168 10.5253 66.2901 13.512ZM88.8306 25.32C87.5293 25.32 86.4733 24.9253 85.6626 24.136C84.852 23.3467 84.4466 22.2907 84.4466 20.968C84.4466 20.8187 84.4466 20.6587 84.4466 20.488C84.4466 20.3173 84.4573 20.1573 84.4786 20.008L86.0786 8.68C86.1213 8.424 86.1853 8.25333 86.2706 8.168C86.3773 8.08267 86.5693 8.04 86.8466 8.04H90.3666C90.6013 8.04 90.772 8.11467 90.8786 8.264C90.9853 8.41333 91.0173 8.616 90.9746 8.872L89.4706 19.528C89.4493 19.6347 89.4386 19.7413 89.4386 19.848C89.4386 19.9333 89.4386 20.008 89.4386 20.072C89.4386 20.6693 89.5986 21.1067 89.9186 21.384C90.2386 21.64 90.6653 21.768 91.1986 21.768C91.924 21.768 92.6066 21.576 93.2466 21.192C93.908 20.808 94.5373 20.3387 95.1346 19.784L96.7666 8.648C96.788 8.392 96.852 8.232 96.9586 8.168C97.0866 8.08267 97.2893 8.04 97.5666 8.04H101.023C101.279 8.04 101.46 8.11467 101.567 8.264C101.695 8.41333 101.737 8.616 101.695 8.872L99.3906 24.552C99.3693 24.744 99.3266 24.872 99.2626 24.936C99.22 24.9787 99.1133 25 98.9426 25H95.1346C94.9853 25 94.8573 24.968 94.7506 24.904C94.6653 24.84 94.6333 24.7227 94.6546 24.552L94.9106 22.984C94.932 22.856 94.9 22.792 94.8146 22.792C94.7293 22.792 94.612 22.856 94.4626 22.984C93.4813 23.8373 92.532 24.4453 91.6146 24.808C90.7186 25.1493 89.7906 25.32 88.8306 25.32ZM110.84 25.32C109.283 25.32 107.928 25.0107 106.776 24.392C105.645 23.752 104.771 22.8773 104.152 21.768C103.533 20.6373 103.224 19.336 103.224 17.864C103.224 16.3707 103.48 15.0053 103.992 13.768C104.525 12.5093 105.24 11.432 106.136 10.536C107.032 9.64 108.067 8.94667 109.24 8.456C110.435 7.96533 111.683 7.72 112.984 7.72C114.541 7.72 115.885 8.05067 117.016 8.712C118.168 9.352 119.043 10.248 119.64 11.4C120.259 12.5307 120.568 13.8427 120.568 15.336C120.568 17.2347 120.141 18.9413 119.288 20.456C118.435 21.9707 117.272 23.1653 115.8 24.04C114.328 24.8933 112.675 25.32 110.84 25.32ZM110.968 22.056C111.843 22.056 112.632 21.768 113.336 21.192C114.061 20.5947 114.637 19.7307 115.064 18.6C115.491 17.448 115.704 16.04 115.704 14.376C115.704 13.224 115.469 12.36 115 11.784C114.531 11.1867 113.837 10.888 112.92 10.888C112.045 10.888 111.245 11.1867 110.52 11.784C109.795 12.3813 109.219 13.256 108.792 14.408C108.365 15.56 108.152 16.968 108.152 18.632C108.152 19.7627 108.387 20.616 108.856 21.192C109.325 21.768 110.029 22.056 110.968 22.056ZM128.345 25C126.98 25 125.902 24.7013 125.113 24.104C124.324 23.4853 123.929 22.6213 123.929 21.512C123.929 21.384 123.929 21.256 123.929 21.128C123.929 21 123.94 20.8613 123.961 20.712L125.241 11.816C125.262 11.6667 125.22 11.5707 125.113 11.528C125.028 11.464 124.9 11.432 124.729 11.432H122.745C122.468 11.432 122.35 11.1973 122.393 10.728L122.745 8.392C122.766 8.22133 122.809 8.12533 122.873 8.104C122.958 8.06133 123.086 8.04 123.257 8.04H125.465C125.572 8.04 125.668 7.99733 125.753 7.912C125.86 7.80533 125.924 7.688 125.945 7.56L127.097 2.696C127.161 2.41867 127.364 2.28 127.705 2.28H131.161C131.31 2.28 131.417 2.33333 131.481 2.44C131.545 2.54667 131.566 2.73867 131.545 3.016L130.841 7.656C130.82 7.76267 130.841 7.848 130.905 7.912C130.969 7.976 131.054 8.008 131.161 8.008H134.457C134.628 8.008 134.766 8.04 134.873 8.104C135.001 8.168 135.044 8.28533 135.001 8.456L134.649 11.016C134.628 11.1867 134.574 11.304 134.489 11.368C134.425 11.4107 134.276 11.432 134.041 11.432H130.649C130.372 11.432 130.201 11.6027 130.137 11.944L129.049 19.688C129.028 19.7947 129.017 19.8907 129.017 19.976C129.017 20.0613 129.017 20.1573 129.017 20.264C129.017 20.7547 129.156 21.096 129.433 21.288C129.732 21.4587 130.201 21.544 130.841 21.544H132.569C132.718 21.544 132.836 21.6187 132.921 21.768C133.028 21.9173 133.07 22.0667 133.049 22.216L132.729 24.2C132.686 24.6053 132.484 24.8293 132.121 24.872C131.758 24.8933 131.342 24.9147 130.873 24.936C130.425 24.9573 129.977 24.9787 129.529 25C129.081 25 128.686 25 128.345 25ZM142.842 25.32C141.306 25.32 139.962 25.0107 138.81 24.392C137.658 23.752 136.752 22.8773 136.09 21.768C135.45 20.6587 135.13 19.368 135.13 17.896C135.13 16.5733 135.365 15.3147 135.834 14.12C136.325 12.904 136.997 11.816 137.85 10.856C138.725 9.87467 139.749 9.10667 140.922 8.552C142.117 7.99733 143.429 7.72 144.858 7.72C146.33 7.72 147.61 8.01867 148.698 8.616C149.808 9.192 150.661 10.0347 151.258 11.144C151.877 12.2533 152.186 13.5973 152.186 15.176C152.186 15.4533 152.176 15.7413 152.154 16.04C152.133 16.3387 152.101 16.648 152.058 16.968C152.037 17.1387 151.973 17.2667 151.866 17.352C151.76 17.416 151.578 17.448 151.322 17.448H140.538C140.325 17.448 140.186 17.5867 140.122 17.864C140.058 18.1413 140.026 18.4613 140.026 18.824C140.026 19.848 140.357 20.6267 141.018 21.16C141.68 21.6933 142.522 21.96 143.546 21.96C144.357 21.96 145.114 21.8 145.818 21.48C146.522 21.1387 147.216 20.5947 147.898 19.848C148.005 19.7413 148.112 19.6987 148.218 19.72C148.346 19.72 148.485 19.752 148.634 19.816L150.746 20.808C151.173 21 151.248 21.2773 150.97 21.64C150.117 22.5787 149.274 23.3253 148.442 23.88C147.632 24.4133 146.768 24.7867 145.85 25C144.954 25.2133 143.952 25.32 142.842 25.32ZM146.906 14.888C147.12 14.888 147.301 14.8027 147.45 14.632C147.6 14.44 147.674 14.1093 147.674 13.64C147.674 12.872 147.44 12.2 146.97 11.624C146.522 11.0267 145.829 10.728 144.89 10.728C144.186 10.728 143.525 10.9093 142.906 11.272C142.288 11.6347 141.776 12.136 141.37 12.776C140.965 13.3947 140.72 14.0987 140.634 14.888H146.906ZM160.568 25.32C158.499 25.32 156.846 24.9573 155.608 24.232C154.371 23.4853 153.518 22.6107 153.048 21.608C152.899 21.288 152.974 21.0427 153.272 20.872L155.352 19.88C155.566 19.7733 155.747 19.7307 155.896 19.752C156.067 19.7733 156.216 19.8907 156.344 20.104C156.664 20.68 157.123 21.1813 157.72 21.608C158.339 22.0133 159.246 22.216 160.44 22.216C160.718 22.216 161.059 22.1947 161.464 22.152C161.891 22.088 162.296 21.992 162.68 21.864C163.086 21.7147 163.427 21.512 163.704 21.256C163.982 20.9787 164.12 20.6267 164.12 20.2C164.12 19.88 163.971 19.6027 163.672 19.368C163.374 19.112 162.862 18.888 162.136 18.696L158.968 17.896C157.539 17.5333 156.472 17.0213 155.768 16.36C155.064 15.6987 154.712 14.824 154.712 13.736C154.712 12.4133 155.075 11.3147 155.8 10.44C156.547 9.544 157.518 8.872 158.712 8.424C159.907 7.95467 161.187 7.72 162.552 7.72C164.238 7.72 165.614 8.04 166.68 8.68C167.747 9.32 168.536 10.088 169.048 10.984C169.134 11.0907 169.166 11.208 169.144 11.336C169.144 11.464 169.059 11.5707 168.888 11.656L166.776 12.616C166.627 12.68 166.499 12.6907 166.392 12.648C166.286 12.6053 166.126 12.4667 165.912 12.232C165.614 11.8053 165.176 11.4533 164.6 11.176C164.024 10.8773 163.31 10.728 162.456 10.728C161.966 10.728 161.464 10.792 160.952 10.92C160.462 11.0267 160.046 11.2187 159.704 11.496C159.384 11.7733 159.224 12.136 159.224 12.584C159.224 12.8827 159.32 13.1387 159.512 13.352C159.704 13.544 160.11 13.736 160.728 13.928L164.248 14.792C165.784 15.1547 166.883 15.752 167.544 16.584C168.206 17.3947 168.536 18.312 168.536 19.336C168.536 20.36 168.302 21.256 167.832 22.024C167.384 22.7707 166.776 23.3893 166.008 23.88C165.24 24.3707 164.376 24.7333 163.416 24.968C162.478 25.2027 161.528 25.32 160.568 25.32Z" fill="#058A3F"/>
</svg>
